<?xml version="1.0" encoding="utf-8"?>
<!-- Generator: Adobe Illustrator 25.2.1, SVG Export Plug-In . SVG Version: 6.00 Build 0)  -->
<svg version="1.1" id="Layer_2" xmlns="http://www.w3.org/2000/svg" xmlns:xlink="http://www.w3.org/1999/xlink" x="0px" y="0px"
	 viewBox="0 0 500 500" style="enable-background:new 0 0 500 500;" xml:space="preserve">
<style type="text/css">
	.st0{fill:#383838;}
	.st1{fill:#FFFFFF;}
</style>
<g>
	<g>
		<path class="st0" d="M329.5,288.4c-22.4,24.5-55.7,33-85.6,25c-1.1-0.3-2.2-0.6-3.2-0.9c-6.5-2-12.9-4.9-18.9-8.5
			c-0.9-0.5-1.7-1.1-2.6-1.6c-3.8-2.5-7.5-5.3-11-8.5c-1.7-1.5-3.2-3.1-4.7-4.7c-0.7-0.7-1.4-1.5-2-2.2c-4.7-5.3-8.6-11.1-11.7-17.2
			c-0.5-1-1-1.9-1.4-2.9c-14.2-30.5-9.7-67.9,14.5-94.3c24.2-26.5,61.1-34.3,92.9-22.8c1,0.4,2,0.8,3,1.2c6.3,2.5,12.3,5.9,18,10
			c0.8,0.6,1.6,1.2,2.4,1.8c1.7,1.4,3.5,2.8,5.1,4.3c3.5,3.2,6.7,6.7,9.6,10.3c0.6,0.8,1.2,1.6,1.8,2.4c4,5.5,7.3,11.3,9.8,17.4
			c0.4,1,0.8,2.1,1.2,3.1C357.5,229.5,352.1,263.7,329.5,288.4z"/>
	</g>
	<g>
		<path class="st0" d="M266,338.6c-27.1,0-52.8-10-72.9-28.3c-44-40.3-47.1-108.8-6.8-152.8c40.3-44,108.8-47.1,152.8-6.8
			s47.1,108.8,6.8,152.8c-19.5,21.3-46.1,33.8-75,35.1C269.3,338.6,267.7,338.6,266,338.6z M266.2,125.3c-28.5,0-57,11.5-77.7,34.2
			c-39.1,42.8-36.2,109.5,6.7,148.6c20.7,19,47.6,28.7,75.7,27.5c28.1-1.3,54-13.4,72.9-34.1c39.1-42.8,36.2-109.5-6.7-148.6
			C317,134.4,291.5,125.3,266.2,125.3z"/>
	</g>
	<g>
		<path class="st0" d="M197.9,456.8c-9.5,0-19-3.4-26.5-10.3L64.6,348.9c-16-14.6-17.1-39.6-2.5-55.6l1-1.1l164.8,150.7l-1,1.1
			C219.2,452.5,208.6,456.8,197.9,456.8z M173.4,444.2c14.4,13.2,36.7,12.5,50.3-1.2L63.4,296.4c-5.9,7-8.9,15.8-8.5,25
			c0.4,9.7,4.6,18.6,11.8,25.2L173.4,444.2z"/>
	</g>
	<g>
		<g>
			<path class="st0" d="M88.5,350.1c-1.8,0-3.5-0.7-4.8-1.9c-1.4-1.3-2.2-3.1-2.3-5s0.6-3.8,1.9-5.2c2.7-2.9,7.2-3.1,10.2-0.5
				c1.4,1.3,2.2,3.1,2.3,5s-0.6,3.8-1.9,5.2c-1.3,1.4-3.1,2.2-5,2.3C88.7,350.1,88.6,350.1,88.5,350.1z M88.5,338.7
				c-0.1,0-0.1,0-0.2,0c-1.1,0.1-2.1,0.5-2.9,1.4c-0.8,0.8-1.1,1.9-1.1,3c0,1.1,0.5,2.1,1.4,2.9c0.8,0.8,1.9,1.1,3,1.1
				c1.1,0,2.1-0.5,2.9-1.4l0,0c0.8-0.8,1.1-1.9,1.1-3s-0.5-2.1-1.4-2.9C90.6,339.1,89.6,338.7,88.5,338.7z"/>
		</g>
		<g>
			<path class="st0" d="M105.8,365.9c-1.8,0-3.5-0.7-4.8-1.9c-1.4-1.3-2.2-3.1-2.3-5s0.6-3.8,1.9-5.2s3.1-2.2,5-2.3
				c1.9-0.1,3.8,0.6,5.2,1.9c1.4,1.3,2.2,3.1,2.3,5s-0.6,3.8-1.9,5.2s-3.1,2.2-5,2.3C106.1,365.9,106,365.9,105.8,365.9z
				 M105.9,354.6c-0.1,0-0.1,0-0.2,0c-1.1,0-2.1,0.5-2.9,1.4s-1.1,1.9-1.1,3s0.5,2.1,1.4,2.9s1.9,1.1,3,1.1c1.1,0,2.1-0.5,2.9-1.4
				l0,0c0.8-0.8,1.1-1.9,1.1-3s-0.5-2.1-1.4-2.9C107.9,355,106.9,354.6,105.9,354.6z"/>
		</g>
		<g>
			<path class="st0" d="M123.2,381.8c-1.8,0-3.5-0.7-4.8-1.9c-1.4-1.3-2.2-3.1-2.3-5c-0.1-1.9,0.6-3.8,1.9-5.2
				c1.3-1.4,3.1-2.2,5-2.3c1.9-0.1,3.8,0.6,5.2,1.9s2.2,3.1,2.3,5c0.1,1.9-0.6,3.8-1.9,5.2l0,0c-1.3,1.4-3.1,2.2-5,2.3
				C123.4,381.8,123.3,381.8,123.2,381.8z M123.2,370.4c-0.1,0-0.1,0-0.2,0c-1.1,0-2.1,0.5-2.9,1.4c-1.6,1.7-1.4,4.4,0.3,5.9
				c1.7,1.6,4.4,1.4,5.9-0.3l0,0c0.8-0.8,1.1-1.9,1.1-3s-0.5-2.1-1.4-2.9C125.2,370.8,124.2,370.4,123.2,370.4z"/>
		</g>
		<g>
			<path class="st0" d="M140.5,397.6c-1.7,0-3.5-0.6-4.8-1.9c-1.4-1.3-2.2-3.1-2.3-5c-0.1-1.9,0.6-3.8,1.9-5.2
				c1.3-1.4,3.1-2.2,5-2.3c1.9-0.1,3.8,0.6,5.2,1.9s2.2,3.1,2.3,5s-0.6,3.8-1.9,5.2C144.4,396.8,142.4,397.6,140.5,397.6z
				 M140.5,386.2c-0.1,0-0.1,0-0.2,0c-1.1,0-2.1,0.5-2.9,1.4c-0.8,0.8-1.1,1.9-1.1,3c0.1,1.1,0.5,2.1,1.4,2.9c0.8,0.8,1.9,1.1,3,1.1
				c1.1-0.1,2.1-0.5,2.9-1.4l0,0c0.8-0.8,1.1-1.9,1.1-3c0-1.1-0.5-2.1-1.4-2.9C142.5,386.6,141.6,386.2,140.5,386.2z"/>
		</g>
		<g>
			<path class="st0" d="M157.8,413.5c-1.7,0-3.5-0.6-4.8-1.9c-2.9-2.7-3.1-7.2-0.5-10.2c1.3-1.4,3.1-2.2,5-2.3
				c1.9-0.1,3.8,0.6,5.2,1.9c2.9,2.7,3.1,7.2,0.5,10.2l0,0C161.7,412.7,159.8,413.5,157.8,413.5z M157.8,402.1c-0.1,0-0.1,0-0.2,0
				c-1.1,0-2.1,0.5-2.9,1.4c-1.6,1.7-1.4,4.4,0.3,5.9c1.7,1.6,4.4,1.4,5.9-0.3l0,0c1.6-1.7,1.4-4.4-0.3-5.9
				C159.9,402.5,158.9,402.1,157.8,402.1z"/>
		</g>
		<g>
			<path class="st0" d="M175.1,429.3c-1.7,0-3.5-0.6-4.8-1.9l0,0c-2.9-2.7-3.1-7.2-0.5-10.2c1.3-1.4,3.1-2.2,5-2.3
				c1.9-0.1,3.8,0.6,5.2,1.9c2.9,2.7,3.1,7.2,0.5,10.2C179,428.5,177.1,429.3,175.1,429.3z M172.3,425.2c1.7,1.6,4.4,1.4,5.9-0.3
				c1.6-1.7,1.4-4.4-0.3-5.9c-1.7-1.6-4.4-1.4-5.9,0.3C170.5,421,170.6,423.6,172.3,425.2L172.3,425.2z"/>
		</g>
	</g>
	<g>
		<path class="st0" d="M88.5,344.4c-0.4,0-0.7-0.1-1-0.4c-0.6-0.6-0.6-1.5-0.1-2.1l35.4-38.2c0.6-0.6,1.5-0.6,2.1-0.1
			c0.6,0.6,0.6,1.5,0.1,2.1l-35.4,38.2C89.3,344.3,88.9,344.4,88.5,344.4z"/>
	</g>
	<g>
		<path class="st0" d="M105.9,360.3c-0.4,0-0.7-0.1-1-0.4c-0.6-0.6-0.7-1.5-0.1-2.1l213.9-233.4c0.6-0.6,1.5-0.7,2.1-0.1
			c0.6,0.6,0.7,1.5,0.1,2.1L107,359.8C106.7,360.2,106.3,360.3,105.9,360.3z"/>
	</g>
	<g>
		<path class="st0" d="M123.2,376.3c-0.4,0-0.7-0.1-1-0.4c-0.6-0.6-0.7-1.5-0.1-2.1l239.7-262.3c0.6-0.6,1.5-0.7,2.1-0.1
			c0.6,0.6,0.7,1.5,0.1,2.1L124.3,375.8C124,376.1,123.6,376.3,123.2,376.3z"/>
	</g>
	<g>
		<path class="st0" d="M140.5,391.9c-0.4,0-0.7-0.1-1-0.4c-0.6-0.6-0.7-1.5-0.1-2.1l277-302.3c0.6-0.6,1.5-0.7,2.1-0.1
			s0.7,1.5,0.1,2.1l-277,302.3C141.3,391.8,140.9,391.9,140.5,391.9z"/>
	</g>
	<g>
		<path class="st0" d="M157.7,407.7c-0.4,0-0.7-0.1-1-0.4c-0.6-0.6-0.7-1.5-0.1-2.1l217.6-239.8c0.6-0.6,1.5-0.7,2.1-0.1
			c0.6,0.6,0.7,1.5,0.1,2.1L158.8,407.2C158.5,407.5,158.1,407.7,157.7,407.7z"/>
	</g>
	<g>
		<path class="st1" d="M295.6,149.7L188.3,266.8c0.5,1,0.9,1.9,1.4,2.9l108.9-118.8C297.6,150.4,296.6,150.1,295.6,149.7z
			 M316.6,160.9l-115.2,126c0.6,0.8,1.3,1.5,2,2.2L319,162.7C318.2,162.1,317.4,161.5,316.6,160.9z M333.7,177.3l-114.5,125
			c0.8,0.6,1.7,1.1,2.6,1.6l113.8-124.2C335,178.9,334.3,178.1,333.7,177.3z M345.4,197.1L240.7,312.5c1.1,0.3,2.1,0.6,3.2,0.9
			l102.7-113.2C346.2,199.2,345.8,198.2,345.4,197.1z"/>
	</g>
	<g>
		<path class="st0" d="M175.2,423.7c-0.4,0-0.7-0.1-1-0.4c-0.6-0.6-0.6-1.5-0.1-2.1l39.4-41.8c0.6-0.6,1.5-0.6,2.1-0.1
			c0.6,0.6,0.6,1.5,0.1,2.1l-39.4,41.8C176,423.5,175.6,423.7,175.2,423.7z"/>
	</g>
	<g>
		<g>
			<circle class="st1" cx="275.2" cy="190.8" r="0.8"/>
		</g>
		<g>
			<circle class="st1" cx="290" cy="241.9" r="1.5"/>
		</g>
		<g>
			<circle class="st1" cx="209.7" cy="186.4" r="0.9"/>
		</g>
		<g>
			<circle class="st1" cx="203" cy="223.9" r="1.2"/>
		</g>
		<g>
			<circle class="st1" cx="207.1" cy="248.4" r="1.2"/>
		</g>
		<g>
			<circle class="st1" cx="263.1" cy="205" r="0.7"/>
		</g>
		<g>
			<circle class="st1" cx="249.1" cy="256.5" r="1.3"/>
		</g>
		<g>
			<circle class="st1" cx="242.2" cy="285.1" r="1.7"/>
		</g>
		<g>
			<circle class="st1" cx="304" cy="290.3" r="0.9"/>
		</g>
		<g>
			<circle class="st1" cx="322.1" cy="255.8" r="1.2"/>
		</g>
		<g>
			<circle class="st1" cx="328.2" cy="217.6" r="1.6"/>
		</g>
		<g>
			<circle class="st1" cx="313.6" cy="194" r="0.7"/>
		</g>
		<g>
			<circle class="st1" cx="266.9" cy="169.3" r="1.8"/>
		</g>
		<g>
			<circle class="st1" cx="230.4" cy="173" r="0.7"/>
		</g>
		<g>
			<circle class="st1" cx="229.8" cy="195.8" r="1.2"/>
		</g>
		<g>
			<path class="st1" d="M303.2,262.5l0.1,0.2c0.7,2.3,2.5,4.1,4.8,4.8l0.2,0.1l-0.2,0.1c-2.3,0.7-4.1,2.5-4.8,4.8l-0.1,0.2l-0.1-0.2
				c-0.7-2.3-2.5-4.1-4.8-4.8l-0.2-0.1l0.2-0.1c2.3-0.7,4.1-2.5,4.8-4.8L303.2,262.5z"/>
		</g>
		<g>
			<path class="st1" d="M192.7,237.4l0.1,0.2c0.7,2.3,2.5,4.1,4.8,4.8l0.2,0.1l-0.2,0.1c-2.3,0.7-4.1,2.5-4.8,4.8l-0.1,0.2l-0.1-0.2
				c-0.7-2.3-2.5-4.1-4.8-4.8l-0.2-0.1l0.2-0.1c2.3-0.7,4.1-2.5,4.8-4.8L192.7,237.4z"/>
		</g>
		<g>
			<path class="st1" d="M252.2,153.2l0.1,0.2c0.7,2.3,2.5,4.1,4.8,4.8l0.2,0.1l-0.2,0.1c-2.3,0.7-4.1,2.5-4.8,4.8l-0.1,0.2l-0.1-0.2
				c-0.7-2.3-2.5-4.1-4.8-4.8l-0.2-0.1l0.2-0.1c2.3-0.7,4.1-2.5,4.8-4.8L252.2,153.2z"/>
		</g>
		<g>
			<path class="st1" d="M338.4,229.3l0,0.1c0.4,1.5,1.6,2.6,3,3l0.1,0l-0.1,0c-1.5,0.4-2.6,1.6-3,3l0,0.1l0-0.1
				c-0.4-1.5-1.6-2.6-3-3l-0.1,0l0.1,0c1.5-0.4,2.6-1.6,3-3L338.4,229.3z"/>
		</g>
		<g>
			<path class="st1" d="M280.5,300.3l0,0.1c0.4,1.5,1.6,2.6,3,3l0.1,0l-0.1,0c-1.5,0.4-2.6,1.6-3,3l0,0.1l0-0.1
				c-0.4-1.5-1.6-2.6-3-3l-0.1,0l0.1,0c1.5-0.4,2.6-1.6,3-3L280.5,300.3z"/>
		</g>
		<g>
			<path class="st1" d="M201.6,195.9l0,0.1c0.4,1.5,1.6,2.6,3,3l0.1,0l-0.1,0c-1.5,0.4-2.6,1.6-3,3l0,0.1l0-0.1
				c-0.4-1.5-1.6-2.6-3-3l-0.1,0l0.1,0c1.5-0.4,2.6-1.6,3-3L201.6,195.9z"/>
		</g>
		<g>
			<path class="st1" d="M216.9,281.7l0,0.1c0.4,1.5,1.6,2.6,3,3l0.1,0l-0.1,0c-1.5,0.4-2.6,1.6-3,3l0,0.1l0-0.1
				c-0.4-1.5-1.6-2.6-3-3l-0.1,0l0.1,0c1.5-0.4,2.6-1.6,3-3L216.9,281.7z"/>
		</g>
	</g>
	<g>
		<g>
			<circle class="st1" cx="307.2" cy="221.9" r="0.8"/>
		</g>
		<g>
			<circle class="st1" cx="266.8" cy="256.5" r="1.5"/>
		</g>
		<g>
			<circle class="st1" cx="284.3" cy="160.4" r="0.9"/>
		</g>
		<g>
			<circle class="st1" cx="247.3" cy="169.8" r="1.2"/>
		</g>
		<g>
			<circle class="st1" cx="226.7" cy="183.6" r="1.2"/>
		</g>
		<g>
			<circle class="st1" cx="289.3" cy="216.7" r="0.7"/>
		</g>
		<g>
			<circle class="st1" cx="236.7" cy="225.3" r="1.3"/>
		</g>
		<g>
			<circle class="st1" cx="207.8" cy="230.8" r="1.7"/>
		</g>
		<g>
			<circle class="st1" cx="228.5" cy="289.2" r="0.9"/>
		</g>
		<g>
			<circle class="st1" cx="267.4" cy="291.5" r="1.2"/>
		</g>
		<g>
			<circle class="st1" cx="304.7" cy="281.3" r="1.6"/>
		</g>
		<g>
			<circle class="st1" cx="320.1" cy="258.2" r="0.7"/>
		</g>
		<g>
			<circle class="st1" cx="323.4" cy="205.5" r="1.8"/>
		</g>
		<g>
			<circle class="st1" cx="305" cy="173.7" r="0.7"/>
		</g>
		<g>
			<circle class="st1" cx="284" cy="182.7" r="1.2"/>
		</g>
	</g>
	<g>
		<g>
			<path class="st0" d="M432.5,94.5c-12.1,0-21.9-9.8-21.9-21.9s9.8-21.9,21.9-21.9s21.9,9.8,21.9,21.9S444.6,94.5,432.5,94.5z
				 M432.5,52.6c-11,0-19.9,8.9-19.9,19.9s8.9,19.9,19.9,19.9s19.9-8.9,19.9-19.9S443.5,52.6,432.5,52.6z"/>
		</g>
		<g>
			<path class="st0" d="M426.4,89.7c-0.6,0-1.3-0.4-1.7-0.8c-1-1-1.7-2.4-1.8-3.8c0-0.4-0.1-0.9-0.1-1.3c0-0.8,0-1.6-0.3-2.3
				c-0.3-0.5-0.7-0.9-1.2-1.4c-0.7-0.6-1.4-1.3-1.6-2.3c-0.1-0.8,0.1-1.5,0.3-2.2c0.2-0.8,0.4-1.5,0.1-2c-0.2-0.3-0.6-0.6-1.1-0.9
				c-0.6-0.4-1.3-0.8-1.6-1.6c-0.3-0.9,0.3-1.8,0.8-2.5c0.5-0.7,0.8-1.2,0.6-1.6c-0.1-0.2-0.3-0.5-0.6-0.7c-0.3-0.2-0.5-0.4-0.8-0.6
				c-1.1-0.8-2.2-1.7-2.8-3c-0.1-0.3,0-0.5,0.3-0.7c0.3-0.1,0.5,0,0.7,0.3c0.4,1.1,1.4,1.8,2.4,2.6c0.3,0.2,0.6,0.4,0.8,0.7
				c0.4,0.3,0.7,0.7,0.9,1.2c0.3,1-0.2,1.8-0.7,2.5c-0.4,0.6-0.8,1.1-0.6,1.6c0.1,0.4,0.6,0.7,1.1,1c0.5,0.3,1.1,0.6,1.4,1.2
				c0.5,0.9,0.3,1.9,0,2.8c-0.2,0.6-0.3,1.2-0.2,1.7c0.1,0.7,0.7,1.2,1.3,1.8c0.5,0.5,1,1,1.4,1.6c0.4,0.9,0.4,1.8,0.5,2.7
				c0,0.4,0,0.8,0.1,1.2c0.1,1.2,0.7,2.3,1.5,3.2c0.4,0.4,0.9,0.6,1.2,0.5c0.2-0.1,0.3-0.4,0.5-0.6c0.9-1.8,1.5-3.7,2.2-5.5
				c0.9-2.5,1.8-5.1,3.2-7.5l0.2-0.3c0.4-0.6,0.7-1.1,0.8-1.8c0.1-0.6,0.1-1.3-0.4-1.7c-0.3-0.2-0.7-0.3-1.2-0.4
				c-1.3-0.3-2.6-0.5-3.8-0.9c-0.3-0.1-0.7-0.2-1-0.5c-0.3-0.3-0.5-0.8-0.5-1.1c-0.3-1.6,0.2-3.3,1.4-4.5c0.1-0.1,0.2-0.2,0.3-0.3
				c0.3-0.3,0.6-0.6,0.8-1c0.1-0.2,0-0.5-0.1-0.8c-0.1-0.2-0.4-0.4-0.6-0.5c-0.1,0-0.2,0-0.3,0c-0.4,0-1-0.1-1.3-0.7
				c-0.2-0.5,0-0.9,0.1-1.2c0.1-0.1,0.1-0.3,0.1-0.4c0-0.2-0.2-0.5-0.5-0.8c-1.2-1.3-1.9-2.9-2.1-4.6c0-0.3,0.2-0.5,0.5-0.5
				c0.3,0,0.5,0.2,0.5,0.5c0.1,1.5,0.8,2.9,1.8,4c0.4,0.4,0.9,1,0.8,1.7c0,0.3-0.1,0.5-0.2,0.7c0,0.1-0.1,0.3-0.1,0.3
				c0.1,0.1,0.3,0.1,0.5,0.1c0.1,0,0.2,0,0.4,0c0.5,0.1,1,0.4,1.3,0.9c0.3,0.5,0.4,1.1,0.2,1.6c-0.2,0.6-0.6,1-1,1.4
				c-0.1,0.1-0.2,0.2-0.3,0.3c-0.9,1-1.3,2.4-1.1,3.7c0.1,0.3,0.1,0.5,0.2,0.6c0.1,0.1,0.3,0.2,0.6,0.2c1.2,0.3,2.5,0.6,3.8,0.9
				c0.5,0.1,1.1,0.2,1.6,0.6c0.7,0.6,1,1.7,0.8,2.8c-0.2,0.8-0.6,1.4-1,2l-0.2,0.3c-1.4,2.3-2.3,4.8-3.1,7.3
				c-0.7,1.9-1.3,3.8-2.2,5.6c-0.2,0.4-0.4,0.8-0.9,1.1C426.9,89.6,426.6,89.7,426.4,89.7z"/>
		</g>
		<g>
			<path class="st0" d="M438.4,62.3c-0.8,0-1.6-0.2-2.2-0.5c-1.4-0.8-2.1-2.4-1.8-3.7c0.2-0.6,0.5-1.1,0.8-1.6l0.1-0.2
				c0.7-1.1,1.3-2.2,1.7-3.5c0.1-0.3,0.4-0.4,0.6-0.3c0.3,0.1,0.4,0.4,0.3,0.6c-0.5,1.3-1.1,2.5-1.9,3.7l-0.1,0.2
				c-0.3,0.4-0.6,0.9-0.7,1.3c-0.2,0.9,0.3,2.1,1.3,2.6c0.9,0.5,2.1,0.5,3.3,0.2c1.2-0.3,2.2-1,3.2-1.7l2.8-1.7
				c0.2-0.1,0.5-0.1,0.7,0.2c0.1,0.2,0.1,0.5-0.2,0.7l-2.8,1.7c-1.1,0.7-2.2,1.4-3.5,1.8C439.6,62.2,439,62.3,438.4,62.3z"/>
		</g>
		<g>
			<path class="st0" d="M447.7,87.4c-0.2,0-0.4-0.1-0.5-0.3c-0.9-2-1.7-5-0.6-7.9c1-2.8,3.8-4.7,6.4-4.5c0.3,0,0.5,0.3,0.4,0.6
				c0,0.3-0.3,0.5-0.6,0.4c-2.4-0.3-4.6,1.7-5.4,3.8c-0.9,2.6-0.2,5.4,0.6,7.2c0.1,0.3,0,0.5-0.3,0.7
				C447.9,87.4,447.8,87.4,447.7,87.4z"/>
		</g>
	</g>
	<g>
		<g>
			<path class="st0" d="M331.4,130c-9.9,0-18-8.1-18-18c0-9.9,8.1-18,18-18s18,8.1,18,18C349.4,121.9,341.3,130,331.4,130z
				 M331.4,96c-8.8,0-16,7.2-16,16s7.2,16,16,16s16-7.2,16-16S340.2,96,331.4,96z"/>
		</g>
		<g>
			<path class="st0" d="M325.4,103.2c-2.6,0-5.2-0.2-7.8-0.5c-0.3,0-0.5-0.3-0.4-0.6c0-0.3,0.3-0.5,0.6-0.4
				c8.4,1.1,17.2,0.3,25.4-2.1c0.3-0.1,0.5,0.1,0.6,0.3c0.1,0.3-0.1,0.5-0.3,0.6C337.6,102.4,331.5,103.2,325.4,103.2z"/>
		</g>
		<g>
			<path class="st0" d="M314.4,111.9c-0.3,0-0.5-0.2-0.5-0.5c0-0.3,0.2-0.5,0.5-0.5c1.8-0.1,3.6-0.1,5.3-0.3c3.9-0.2,7.8-0.6,11.7-1
				c1.1-0.1,2.2-0.2,3.3-0.4c1.1-0.2,2.1-0.4,3-0.7c0.8-0.2,1.7-0.5,2.6-0.9c2.1-0.8,4.1-1.9,5.9-3.2c0.2-0.2,0.6-0.1,0.7,0.1
				c0.2,0.2,0.1,0.5-0.1,0.7l-0.1,0.1c-1.9,1.3-4,2.4-6.1,3.3c-0.9,0.4-1.8,0.7-2.7,0.9c-1,0.3-2,0.5-3.1,0.7
				c-1.1,0.2-2.2,0.3-3.3,0.4c-3.9,0.4-7.8,0.8-11.7,1C318,111.7,316.2,111.8,314.4,111.9C314.4,111.9,314.4,111.9,314.4,111.9z"/>
		</g>
		<g>
			<path class="st0" d="M321.3,118.1c-0.7,0-1.4,0-2,0c-1.3,0-2.7-0.1-4-0.4c-0.3-0.1-0.4-0.3-0.4-0.6c0.1-0.3,0.3-0.4,0.6-0.4
				c1.2,0.3,2.5,0.4,3.8,0.4c4.5,0.1,9.1-0.2,13.6-0.8c1.3-0.2,2.7-0.4,4.2-0.8c0.5-0.1,1-0.3,1.4-0.4c0.7-0.2,1.3-0.4,2-0.6
				c2.6-0.6,5.2-0.7,7.8-0.7c0,0,0,0,0,0c0.3,0,0.5,0.2,0.5,0.5c0,0.3-0.2,0.5-0.5,0.5c-2.5,0-5.1,0-7.6,0.7
				c-0.6,0.2-1.3,0.4-1.9,0.6c-0.5,0.2-1,0.3-1.5,0.4c-1.5,0.4-3,0.7-4.3,0.9C329.2,117.8,325.2,118.1,321.3,118.1z"/>
		</g>
		<g>
			<path class="st0" d="M321,123.2c-1,0-2-0.1-2.9-0.6c-0.2-0.1-0.3-0.4-0.2-0.7s0.4-0.3,0.7-0.2c0.9,0.5,1.9,0.5,3,0.5
				c1.9-0.1,3.8-0.3,5.6-0.5c3-0.4,6-0.7,8.9-1.5c0.5-0.1,0.9-0.3,1.4-0.4c0.4-0.1,0.9-0.3,1.3-0.4c2.5-0.7,5.3-1.2,8.6-1.4
				c0.3,0,0.5,0.2,0.5,0.5c0,0.3-0.2,0.5-0.5,0.5c-3.2,0.2-6,0.7-8.4,1.4c-0.4,0.1-0.9,0.3-1.3,0.4c-0.5,0.1-0.9,0.3-1.4,0.4
				c-3,0.8-6.1,1.2-9.1,1.6c-1.9,0.2-3.8,0.5-5.7,0.5C321.4,123.2,321.2,123.2,321,123.2z"/>
		</g>
		<g>
			<path class="st0" d="M325.1,127.2c-0.9,0-1.7-0.1-2.5-0.5c-0.3-0.1-0.4-0.4-0.2-0.7c0.1-0.2,0.4-0.4,0.7-0.2
				c1.4,0.7,3.1,0.4,4.8,0.1c2.4-0.5,4.2-0.9,5.8-1.4c0.4-0.1,0.7-0.2,1.1-0.3c0.9-0.3,1.8-0.6,2.8-0.8c1.2-0.3,2.5-0.4,3.7-0.5
				l3.5-0.4c0.3,0,0.5,0.2,0.6,0.4c0,0.3-0.2,0.5-0.4,0.6l-3.5,0.4c-1.2,0.1-2.4,0.3-3.6,0.5c-0.9,0.2-1.8,0.5-2.7,0.7
				c-0.4,0.1-0.7,0.2-1.1,0.3c-1.7,0.5-3.5,0.9-5.9,1.4C327,127.1,326,127.2,325.1,127.2z"/>
		</g>
	</g>
	<g>
		<g>
			<path class="st0" d="M387.5,170.2c-10.3,0-18.7-8.4-18.7-18.7s8.4-18.7,18.7-18.7s18.7,8.4,18.7,18.7S397.8,170.2,387.5,170.2z
				 M387.5,134.9c-9.2,0-16.7,7.5-16.7,16.7s7.5,16.7,16.7,16.7s16.7-7.5,16.7-16.7S396.7,134.9,387.5,134.9z"/>
		</g>
		<g>
			<path class="st0" d="M380.5,144.9c-1.8,0-3.3-1.5-3.3-3.3s1.5-3.3,3.3-3.3c1.8,0,3.3,1.5,3.3,3.3S382.3,144.9,380.5,144.9z
				 M380.5,139.3c-1.3,0-2.3,1-2.3,2.3s1,2.3,2.3,2.3c1.3,0,2.3-1,2.3-2.3S381.7,139.3,380.5,139.3z"/>
		</g>
		<g>
			<path class="st0" d="M389.8,148.1c-0.9,0-1.6-0.7-1.6-1.6c0-0.9,0.7-1.6,1.6-1.6c0.9,0,1.6,0.7,1.6,1.6
				C391.3,147.4,390.6,148.1,389.8,148.1z M389.8,146c-0.3,0-0.6,0.2-0.6,0.6c0,0.3,0.2,0.6,0.6,0.6c0.3,0,0.6-0.2,0.6-0.6
				C390.3,146.3,390.1,146,389.8,146z"/>
		</g>
		<g>
			<path class="st0" d="M385.4,161.5c-1.5,0-2.7-1.2-2.7-2.7s1.2-2.7,2.7-2.7s2.7,1.2,2.7,2.7S386.9,161.5,385.4,161.5z M385.4,157
				c-0.9,0-1.7,0.8-1.7,1.7s0.8,1.7,1.7,1.7s1.7-0.8,1.7-1.7S386.4,157,385.4,157z"/>
		</g>
		<g>
			<path class="st0" d="M398.3,162.2c-0.9,0-1.6-0.7-1.6-1.6c0-0.9,0.7-1.6,1.6-1.6c0.9,0,1.6,0.7,1.6,1.6
				C399.9,161.5,399.2,162.2,398.3,162.2z M398.3,160.1c-0.3,0-0.6,0.2-0.6,0.6c0,0.3,0.2,0.6,0.6,0.6c0.3,0,0.6-0.2,0.6-0.6
				C398.9,160.4,398.6,160.1,398.3,160.1z"/>
		</g>
		<g>
			<path class="st0" d="M401.4,149.6c-0.6,0-1.2-0.5-1.2-1.2s0.5-1.2,1.2-1.2c0.6,0,1.2,0.5,1.2,1.2S402,149.6,401.4,149.6z
				 M401.4,148.2c-0.1,0-0.2,0.1-0.2,0.2c0,0.2,0.3,0.2,0.3,0C401.6,148.3,401.5,148.2,401.4,148.2z"/>
		</g>
		<g>
			<path class="st0" d="M394.2,156.1c-0.9,0-1.7-0.7-1.7-1.7c0-0.9,0.7-1.7,1.7-1.7s1.7,0.7,1.7,1.7
				C395.8,155.3,395.1,156.1,394.2,156.1z M394.2,153.8c-0.4,0-0.7,0.3-0.7,0.7c0,0.4,0.3,0.7,0.7,0.7s0.7-0.3,0.7-0.7
				C394.8,154.1,394.5,153.8,394.2,153.8z"/>
		</g>
		<g>
			<path class="st0" d="M391.7,165.2c-0.8,0-1.5-0.7-1.5-1.5s0.7-1.5,1.5-1.5s1.5,0.7,1.5,1.5S392.5,165.2,391.7,165.2z
				 M391.7,163.3c-0.3,0-0.5,0.2-0.5,0.5c0,0.3,0.2,0.5,0.5,0.5c0.3,0,0.5-0.2,0.5-0.5C392.2,163.5,391.9,163.3,391.7,163.3z"/>
		</g>
		<g>
			<path class="st0" d="M378.7,164.7c-0.9,0-1.6-0.7-1.6-1.6c0-0.9,0.7-1.6,1.6-1.6c0.9,0,1.6,0.7,1.6,1.6
				C380.3,164,379.6,164.7,378.7,164.7z M378.7,162.6c-0.3,0-0.6,0.2-0.6,0.6c0,0.3,0.2,0.6,0.6,0.6c0.3,0,0.6-0.2,0.6-0.6
				C379.3,162.9,379,162.6,378.7,162.6z"/>
		</g>
		<g>
			<path class="st0" d="M374.4,156.4c-1,0-1.7-0.8-1.7-1.7c0-1,0.8-1.7,1.7-1.7c1,0,1.7,0.8,1.7,1.7
				C376.2,155.6,375.4,156.4,374.4,156.4z M374.4,153.9c-0.4,0-0.7,0.3-0.7,0.7s0.3,0.7,0.7,0.7s0.7-0.3,0.7-0.7
				S374.8,153.9,374.4,153.9z"/>
		</g>
		<g>
			<path class="st0" d="M383.5,149.5c-0.7,0-1.3-0.6-1.3-1.3c0-0.7,0.6-1.3,1.3-1.3c0.7,0,1.3,0.6,1.3,1.3
				C384.8,148.9,384.2,149.5,383.5,149.5z M383.5,147.9c-0.1,0-0.3,0.1-0.3,0.3c0,0.3,0.5,0.3,0.5,0
				C383.8,148,383.7,147.9,383.5,147.9z"/>
		</g>
		<g>
			<path class="st0" d="M391.4,141.3c-1.2,0-2.1-1-2.1-2.1c0-1.2,1-2.1,2.1-2.1s2.1,1,2.1,2.1C393.5,140.3,392.6,141.3,391.4,141.3z
				 M391.4,138c-0.6,0-1.1,0.5-1.1,1.1s0.5,1.1,1.1,1.1s1.1-0.5,1.1-1.1S392,138,391.4,138z"/>
		</g>
		<g>
			<path class="st0" d="M395.7,146.4c-0.8,0-1.5-0.7-1.5-1.5s0.7-1.5,1.5-1.5s1.5,0.7,1.5,1.5S396.5,146.4,395.7,146.4z
				 M395.7,144.5c-0.3,0-0.5,0.2-0.5,0.5s0.2,0.5,0.5,0.5c0.3,0,0.5-0.2,0.5-0.5S396,144.5,395.7,144.5z"/>
		</g>
	</g>
	<g>
		<g>
			<path class="st0" d="M371.1,115.6c-6.7,0-12.2-5.5-12.2-12.2c0-6.7,5.5-12.2,12.2-12.2c6.7,0,12.2,5.5,12.2,12.2
				C383.3,110.1,377.8,115.6,371.1,115.6z M371.1,93.1c-5.6,0-10.2,4.6-10.2,10.2s4.6,10.2,10.2,10.2s10.2-4.6,10.2-10.2
				S376.7,93.1,371.1,93.1z"/>
		</g>
		<g>
			<path class="st0" d="M360.7,107.8c-0.1,0-0.1,0-0.2,0c-0.3-0.1-0.4-0.3-0.4-0.6c0.1-0.3,0.3-0.4,0.6-0.4c0,0,0.1-0.1,0.2-0.2
				c0.1-0.1,0.1-0.3,0.1-0.4c0-0.2,0.1-0.3,0.1-0.5c0.2-0.5,0.6-0.9,0.9-1.2c0.3-0.3,0.7-0.7,1.2-0.8c0.6-0.1,1.1,0.1,1.4,0.3
				l0.2,0.1c0.5,0.2,1.1,0.4,1.6,0.4c0.1,0,0.2,0,0.2,0c0,0,0-0.1-0.1-0.3c-0.2-0.3-0.4-0.6-0.7-0.8c-0.4-0.3-0.9-0.4-1.3-0.5
				c-0.6-0.2-1.3-0.4-1.9-0.4c-0.6,0-1.2,0-1.6-0.6c-0.1-0.2-0.2-0.4-0.2-0.6c0-0.1,0-0.1,0-0.2c-0.1-0.2-0.3-0.3-0.5-0.3
				c-0.3,0-0.5-0.2-0.6-0.4c0-0.3,0.2-0.5,0.4-0.6c0.7-0.1,1.3,0.3,1.5,1c0,0.1,0.1,0.2,0.1,0.3c0,0.1,0,0.2,0.1,0.2
				c0.1,0.1,0.4,0.1,0.7,0.1l0.1,0c0.8,0,1.5,0.2,2.1,0.4c0.5,0.1,1.1,0.3,1.6,0.7c0.5,0.3,0.8,0.7,1.1,1.2c0.3,0.6,0.2,1.2-0.2,1.5
				c-0.3,0.2-0.7,0.2-0.8,0.2c-0.7,0-1.4-0.2-2-0.5l-0.2-0.1c-0.3-0.2-0.6-0.3-0.8-0.3c-0.2,0-0.4,0.2-0.7,0.5
				c-0.3,0.3-0.6,0.6-0.7,0.9c0,0.1-0.1,0.2-0.1,0.4c0,0.2-0.1,0.4-0.2,0.6C361.6,107.4,361.2,107.8,360.7,107.8z"/>
		</g>
		<g>
			<path class="st0" d="M374,114.6c-0.1,0-0.3-0.1-0.4-0.2c-0.5-0.6-0.6-1.5-0.2-2.3c0.3-0.7,0.9-1.2,1.4-1.6
				c0.2-0.1,0.3-0.2,0.5-0.3c0.4-0.2,0.7-0.5,1-0.8c0.4-0.4,0.7-0.9,0.7-1.3c0-0.4-0.2-0.9-0.6-1c-0.3-0.1-0.7,0.1-1.1,0.2l-2,0.9
				c-0.4,0.2-0.9,0.4-1.4,0.5c-1.2,0.3-2.5,0.2-3.8-0.2c-1.1-0.4-2.1-1.1-3.2-2c-0.4-0.4-0.8-0.7-1.1-0.6c-0.2,0.1-0.3,0.2-0.4,0.4
				c-0.1,0.1-0.1,0.2-0.2,0.3c0,0.2,0.1,0.4,0.4,0.8c1.3,1.4,2.5,2.2,3.7,2.4c0.4,0.1,0.9,0.1,1.4,0.1c0.2,0,0.4,0,0.5,0
				c0.7,0,1.2,0.2,1.4,0.7c0.2,0.4,0.1,0.9-0.2,1.3c-0.3,0.3-0.6,0.4-0.9,0.5c-0.6,0.2-1.3,0.3-2,0.2c-0.1,0-0.3,0-0.4,0
				c-0.3,0-0.5-0.1-0.8,0c-0.2,0-0.5,0.2-0.5,0.3c0,0.3-0.3,0.5-0.6,0.4c-0.3,0-0.5-0.3-0.4-0.6c0.1-0.7,0.8-1.1,1.4-1.2
				c0.4,0,0.7,0,1,0c0.1,0,0.2,0,0.3,0c0.5,0,1.1,0,1.6-0.2c0.1,0,0.3-0.1,0.4-0.2c0.1-0.1,0.1-0.2,0.1-0.2c0,0-0.1-0.1-0.5-0.1
				c-0.2,0-0.3,0-0.5,0c-0.5,0-1,0-1.5-0.1c-1.5-0.2-2.9-1.1-4.3-2.7c-0.2-0.3-0.8-0.9-0.6-1.7c0.1-0.3,0.2-0.5,0.3-0.6
				c0.2-0.3,0.5-0.6,0.9-0.7c0.9-0.3,1.6,0.4,2.1,0.8c0.9,0.8,1.9,1.4,2.9,1.8c1.1,0.4,2.2,0.5,3.2,0.2c0.4-0.1,0.8-0.3,1.2-0.5
				l2-0.9c0.4-0.2,1.1-0.5,1.8-0.3c0.8,0.2,1.4,1.1,1.3,2c-0.1,0.9-0.6,1.5-1,2c-0.3,0.3-0.7,0.6-1.1,0.9c-0.2,0.1-0.3,0.2-0.4,0.3
				c-0.4,0.3-0.9,0.7-1.1,1.2c-0.2,0.4-0.2,0.9,0.1,1.3c0.2,0.2,0.1,0.5-0.1,0.7C374.3,114.5,374.2,114.6,374,114.6z"/>
		</g>
		<g>
			<path class="st0" d="M381,108c-0.1,0-0.2,0-0.3,0c-0.6-0.2-1-0.7-1.2-1.1l-1-1.6c0,0-0.1-0.1-0.1-0.1c0,0,0,0-0.1,0
				c-0.5-0.1-1-0.1-1.5,0c-0.3,0.1-0.6,0.2-0.9,0.3c-0.2,0.1-0.4,0.1-0.6,0.2c-0.8,0.2-1.6,0.3-2.4,0.3c-0.1,0-0.3,0-0.4-0.1
				c-0.1-0.1-0.2-0.2-0.2-0.3c-0.2-0.5,0-1.1,0.5-1.5c0.9-0.7,1.9-1.3,3.3-1.7c0.9-0.3,1.7-0.4,2.6-0.6c0.3-0.1,0.6-0.1,0.9-0.2
				c0,0,0.1,0,0.1,0c0.1-0.4,0-0.8-0.1-1l-0.1-0.1c-0.1-0.1-0.2-0.3-0.3-0.6c-0.1-0.4,0.1-0.8,0.3-1l0.5-0.8c-0.1-0.1-0.1-0.3,0-0.5
				c0.1-0.2,0.4-0.3,0.7-0.2l0.6,0.4l-1,1.6c-0.1,0.2-0.2,0.3-0.1,0.3c0,0,0.1,0.1,0.1,0.2l0.1,0.1c0.3,0.5,0.4,1.2,0.3,1.8
				c-0.1,0.3-0.2,0.5-0.4,0.6c-0.2,0.1-0.4,0.2-0.5,0.2c-0.3,0.1-0.6,0.1-0.9,0.2c-0.8,0.2-1.7,0.4-2.5,0.6c-1.2,0.4-2.2,0.9-3,1.5
				c-0.1,0.1-0.1,0.1-0.2,0.2c0.6,0,1.2-0.1,1.8-0.3c0.2-0.1,0.4-0.1,0.6-0.2c0.3-0.1,0.7-0.2,1-0.3c0.6-0.1,1.3-0.1,1.9,0
				c0.2,0,0.4,0.1,0.6,0.2c0.2,0.1,0.3,0.3,0.3,0.4l1,1.6c0.2,0.3,0.4,0.6,0.6,0.6c0.2,0,0.4,0,0.6-0.1c0.3-0.1,0.5,0.1,0.6,0.4
				c0.1,0.3-0.1,0.5-0.4,0.6C381.5,107.9,381.3,108,381,108z"/>
		</g>
		<g>
			<path class="st0" d="M378.4,96.5c-0.2,0-0.3,0-0.5-0.1c-0.3-0.1-0.5-0.3-0.8-0.4c-0.1,0-0.1-0.1-0.2-0.1
				c-0.4-0.3-0.9-0.4-1.4-0.6c-0.5-0.2-1-0.3-1.5-0.6c-0.1-0.1-0.3-0.2-0.4-0.2c-0.2-0.1-0.4-0.3-0.7-0.4c-0.1,0-0.1,0-0.2-0.1
				c-0.3-0.1-0.7-0.2-0.9-0.5c-0.2-0.2-0.2-0.5-0.3-0.7l-0.1-0.5c-0.1-0.3,0.1-0.5,0.4-0.6c0.3-0.1,0.5,0.1,0.6,0.4l0.1,0.5
				c0,0.1,0.1,0.2,0.1,0.3c0.1,0.1,0.2,0.1,0.4,0.2c0.1,0,0.2,0.1,0.3,0.1c0.3,0.1,0.6,0.3,0.9,0.5c0.1,0.1,0.2,0.1,0.3,0.2
				c0.4,0.2,0.8,0.4,1.3,0.5c0.5,0.2,1.1,0.4,1.6,0.7c0.1,0.1,0.2,0.1,0.2,0.2c0.2,0.1,0.3,0.2,0.5,0.3c0.2,0.1,0.3,0,0.3,0
				c0.1-0.2,0.5-0.3,0.7-0.2c0.2,0.1,0.3,0.5,0.2,0.7C379.2,96.3,378.8,96.5,378.4,96.5z"/>
		</g>
		<g>
			<path class="st0" d="M369.9,104.9c-0.2,0-0.5,0-0.7-0.1c-0.6-0.2-1-0.8-1.2-1.4c0-0.1,0-0.2,0-0.4c0-0.1,0-0.2,0-0.3
				c-0.1-0.3-0.5-0.6-1.2-0.8c-0.7-0.2-1.5-0.4-2.3-0.5c-0.5-0.1-0.9-0.1-1.3-0.4c-0.4-0.3-0.7-0.7-0.9-1.1
				c-0.1-0.2-0.2-0.4-0.4-0.6c-0.2-0.2-0.5-0.4-0.8-0.4c-0.3,0-0.5-0.3-0.4-0.5s0.3-0.5,0.5-0.4c0.6,0.1,1.1,0.3,1.4,0.8
				c0.2,0.3,0.4,0.5,0.5,0.8c0.2,0.3,0.3,0.6,0.5,0.7c0.2,0.1,0.5,0.2,0.8,0.2c0.9,0.1,1.7,0.3,2.5,0.5c0.4,0.1,1.6,0.5,1.9,1.5
				c0,0.2,0.1,0.3,0.1,0.5c0,0.1,0,0.2,0,0.3c0.1,0.3,0.3,0.6,0.6,0.7c0.3,0.1,0.6,0.1,0.9-0.1c0.1-0.1,0.3-0.2,0.4-0.4
				c0.2-0.2,0.3-0.4,0.6-0.6c0.4-0.3,0.8-0.4,1.2-0.4l0.3-0.1c0.6-0.2,1.2-0.4,1.7-0.8c0.1,0,0.1-0.1,0.1-0.1c0,0-0.1,0-0.2,0
				c-0.2,0-0.5,0-0.7,0.1c-0.4,0.1-0.9,0.2-1.5,0c-0.2-0.1-0.4-0.2-0.5-0.3l-1-0.7c-0.4-0.3-1.1-0.8-1.3-1.6c0-0.1-0.1-0.3,0.1-0.6
				c0.1-0.2,0.4-0.4,0.7-0.4c0.7-0.1,1.4,0.1,2,0.4c0.2,0.1,0.4,0.3,0.6,0.4c0.3,0.2,0.5,0.4,0.8,0.5c0.4,0.1,0.8,0.1,1.2,0.1
				c0.6,0,1.1,0,1.7,0c0.3,0,0.6,0,0.7-0.1c0.2-0.1,0.1-0.5-0.1-0.8c-0.2-0.3-0.6-0.4-0.9-0.6l-0.3-0.1c-0.6-0.3-1.1-0.7-1.6-1.1
				l-0.1-0.1c-0.2-0.2-0.3-0.3-0.5-0.4c-0.1,0-0.2,0-0.2,0c0,0,0,0.2,0,0.3c0,0.3,0.1,0.7-0.2,1c-0.4,0.4-0.9,0.4-1.6,0.1
				c-0.8-0.4-1.7-0.7-2.7-0.8l-0.1,0c-0.3,0-0.7-0.1-1-0.2c-0.5-0.3-0.9-0.8-0.9-1.3l0-0.2l0.1-0.1c0,0,0.1-0.1,0.2-0.1
				c-0.3,0-0.7-0.1-1-0.4c-0.3-0.3-0.6-0.7-0.6-1.1c0-0.3,0.2-0.5,0.5-0.5c0.3,0,0.5,0.2,0.5,0.5c0,0.1,0.1,0.3,0.2,0.4
				s0.3,0.2,0.4,0.1c0.1,0,0.1,0,0.2,0c0.1,0,0.2-0.1,0.4-0.1c0.4,0,0.8,0.2,0.9,0.5c0.2,0.5-0.1,1-0.5,1.2c-0.1,0-0.2,0.1-0.3,0.1
				c0,0,0.1,0.1,0.2,0.1c0.2,0.1,0.5,0.1,0.7,0.1l0.1,0c1,0.1,2,0.4,3,0.9c0.4,0.2,0.5,0.1,0.5,0.2c0,0,0-0.1-0.1-0.2
				c0-0.2-0.1-0.6,0.1-0.9c0.3-0.5,0.9-0.6,1.4-0.5c0.4,0.1,0.6,0.4,0.8,0.6c0.5,0.4,1,0.8,1.5,1.1l0.2,0.1c0.4,0.2,0.9,0.5,1.3,0.9
				c0.5,0.6,0.6,1.6,0,2.2c-0.4,0.4-1,0.4-1.4,0.4c-0.6,0-1.2,0-1.7,0c-0.5,0-1,0-1.6-0.2c-0.4-0.1-0.7-0.4-1-0.6
				c-0.2-0.1-0.4-0.2-0.6-0.3c-0.4-0.2-0.9-0.3-1.3-0.3c0.1,0.3,0.5,0.6,0.8,0.8l1,0.7c0.1,0.1,0.2,0.2,0.3,0.2
				c0.2,0.1,0.5,0,0.8-0.1c0.3-0.1,0.7-0.2,1-0.1c0.4,0,0.8,0.2,1,0.5c0.2,0.2,0.2,0.5,0.1,0.8c-0.1,0.3-0.3,0.4-0.4,0.6
				c-0.6,0.5-1.3,0.8-2.1,1l-0.3,0.1c-0.3,0.1-0.6,0.1-0.8,0.3c-0.1,0.1-0.3,0.2-0.4,0.4c-0.2,0.2-0.3,0.4-0.6,0.6
				C370.6,104.8,370.3,104.9,369.9,104.9z"/>
		</g>
	</g>
	<g>
		<g>
			<path class="st0" d="M156.5,288.8l-2-0.2c0.1-0.6,0.1-1.2,0.1-1.8c0-10.4-8.5-18.9-18.9-18.9s-18.9,8.5-18.9,18.9
				c0,0.4,0,0.9,0,1.3l-2,0.1c0-0.5,0-0.9,0-1.4c0-11.5,9.4-20.9,20.9-20.9c11.5,0,20.9,9.4,20.9,20.9
				C156.6,287.4,156.6,288.1,156.5,288.8z"/>
		</g>
		<g>
			<path class="st0" d="M135.7,307.7c-9.1,0-17-5.8-19.9-14.4l1.9-0.6c2.6,7.8,9.8,13,18,13c8.2,0,15.4-5.2,18-13l1.9,0.6
				C152.7,301.9,144.7,307.7,135.7,307.7z"/>
		</g>
		<g>
			<path class="st0" d="M135.7,295.7c-21.6,0-32.9-4.4-32.9-8.8c0-4.1,7.5-6.2,13.8-7.3l0.3,2c-9,1.5-12.2,3.8-12.2,5.3
				c0,2.8,11.8,6.8,30.9,6.8c19.2,0,30.9-4,30.9-6.8c0-1.3-3.8-3.8-12.4-5.4l0.4-2c3.3,0.6,14,3,14,7.4
				C168.6,291.2,157.3,295.7,135.7,295.7z"/>
		</g>
		<g>
			<path class="st0" d="M135.7,291c-6.3,0-12.3-0.4-16.7-1.1c-6.8-1-7.7-2.4-7.7-3.5c0-1.6,2.3-2.4,4.2-2.8l0.5,1.9
				c-1.5,0.4-2.2,0.7-2.5,0.9c1.6,1.1,9.8,2.6,22.3,2.6c12.4,0,20.7-1.4,22.3-2.6c-0.3-0.2-1.1-0.6-2.7-1l0.5-1.9
				c3.1,0.7,4.4,1.6,4.4,2.9c0,1.2-0.9,2.5-7.7,3.5C148,290.6,142,291,135.7,291z"/>
		</g>
	</g>
	<g>
		<g>
			<path class="st0" d="M226.5,384.2c-10.6,0-19.3-8.7-19.3-19.3c0-10.6,8.7-19.3,19.3-19.3c10.6,0,19.3,8.7,19.3,19.3
				C245.8,375.5,237.2,384.2,226.5,384.2z M226.5,347.5c-9.5,0-17.3,7.8-17.3,17.3s7.8,17.3,17.3,17.3s17.3-7.8,17.3-17.3
				S236.1,347.5,226.5,347.5z"/>
		</g>
		<g>
			<path class="st0" d="M238.5,351.8C238.5,351.8,238.4,351.8,238.5,351.8c-2.6-0.4-5.2-0.5-7.8-0.4c-0.5,0-1.1,0-1.6,0.1
				c-0.4,0-0.8,0-1.2,0.1c-1,0-2.1,0.1-3.1,0.1c-1.6,0-3.3-0.1-4.9-0.8c-0.2-0.1-0.4-0.2-0.7-0.4c-0.6-0.3-1.1-0.6-1.6-0.6
				c-0.3,0-0.5-0.2-0.5-0.5c0-0.3,0.3-0.5,0.5-0.5c0.8,0,1.5,0.4,2.1,0.8c0.2,0.1,0.4,0.2,0.6,0.3c1.4,0.7,3,0.7,4.5,0.7
				c1,0,2.1,0,3.1-0.1c0.4,0,0.8,0,1.1-0.1c0.5,0,1.1-0.1,1.6-0.1c2.6-0.1,5.3,0.1,7.9,0.4c0.3,0,0.5,0.3,0.4,0.6
				C238.9,351.6,238.7,351.8,238.5,351.8z"/>
		</g>
		<g>
			<path class="st0" d="M240.1,357.6c-0.5,0-0.9,0-1.3-0.1c-0.6-0.1-1.1-0.2-1.7-0.4c-0.7-0.2-1.4-0.4-2.1-0.4
				c-0.9-0.1-1.7,0-2.7,0.1c-0.5,0-1,0.1-1.5,0.1c-1.2,0-2.3-0.1-3.5-0.2c-1-0.1-2-0.2-3-0.2c-0.9,0-1.9,0.1-2.9,0.2
				c-1,0.1-2,0.2-3,0.2c-2.5,0-5-0.6-7.3-1.7c-0.2-0.1-0.4-0.4-0.2-0.7c0.1-0.2,0.4-0.4,0.7-0.2c2.1,1,4.4,1.6,6.8,1.6
				c1,0,1.9-0.1,2.9-0.2c1-0.1,2-0.2,2.9-0.2c1,0,2.1,0.1,3,0.2c1.1,0.1,2.2,0.2,3.3,0.2c0.5,0,0.9-0.1,1.4-0.1
				c0.9-0.1,1.9-0.2,2.8-0.1c0.8,0.1,1.5,0.3,2.3,0.5c0.5,0.1,1.1,0.3,1.6,0.4c0.8,0.1,2.3,0.2,3.4-0.6c0.2-0.2,0.5-0.2,0.7,0.1
				c0.2,0.2,0.2,0.5-0.1,0.7C242.2,357.4,241.1,357.6,240.1,357.6z"/>
		</g>
		<g>
			<path class="st0" d="M238.1,362.1c-1.8,0-3.5-0.2-5.2-0.5l-0.5-0.1c-0.8-0.2-1.6-0.3-2.4-0.3c-0.5,0-0.9,0.1-1.4,0.2
				c-0.4,0.1-0.8,0.1-1.1,0.2c-0.8,0.1-1.5,0-2.3,0c-0.5,0-0.9-0.1-1.4-0.1c-1,0-2,0.1-3,0.3c-0.8,0.1-1.7,0.2-2.6,0.3
				c-3.2,0.1-6.2-0.8-9.1-1.7c-0.3-0.1-0.4-0.4-0.3-0.6c0.1-0.3,0.4-0.4,0.6-0.3c2.7,1,5.7,1.8,8.7,1.7c0.8,0,1.7-0.1,2.5-0.3
				c1-0.1,2.1-0.3,3.2-0.3c0.5,0,1,0,1.5,0.1c0.7,0.1,1.4,0.1,2.1,0c0.4,0,0.7-0.1,1.1-0.1c0.5-0.1,1-0.2,1.5-0.2
				c0.9,0,1.8,0.2,2.6,0.3l0.5,0.1c3.5,0.7,7.1,0.6,10.6-0.1c0.3-0.1,0.5,0.1,0.6,0.4c0.1,0.3-0.1,0.5-0.4,0.6
				C241.9,361.9,240,362.1,238.1,362.1z"/>
		</g>
		<g>
			<path class="st0" d="M214.8,367c-0.3,0-0.6,0-1-0.2c-0.5-0.2-0.8-0.7-0.7-1.2c0.1-0.4,0.4-0.8,1.3-0.9c1.3-0.2,2.5-0.2,3.8-0.3
				c1.2-0.1,2.4-0.2,3.7-0.3c0.9-0.1,1.7-0.2,2.6-0.4c0.9-0.1,1.7-0.3,2.6-0.4c2.1-0.3,4-0.3,5.8-0.2c0.4,0,0.7,0.1,1.1,0.1
				c1.1,0.1,2.2,0.2,3.3,0.1c0.5-0.1,1-0.2,1.6-0.3c0.2-0.1,0.4-0.1,0.6-0.2c1.7-0.4,3.4-0.6,5.1-0.7c0.3,0,0.5,0.2,0.5,0.4
				c0,0.3-0.2,0.5-0.4,0.5c-1.6,0.2-3.3,0.3-4.9,0.7c-0.2,0.1-0.4,0.1-0.6,0.2c-0.5,0.1-1.1,0.3-1.7,0.4c-1.2,0.2-2.4,0-3.5-0.1
				c-0.3,0-0.7-0.1-1-0.1c-1.7-0.1-3.6-0.1-5.6,0.2c-0.9,0.1-1.7,0.2-2.6,0.4c-0.9,0.1-1.7,0.3-2.6,0.4c-1.2,0.1-2.5,0.2-3.7,0.3
				c-1.2,0.1-2.5,0.2-3.7,0.3c-0.4,0-0.5,0.2-0.5,0.2c0,0,0.1,0.1,0.1,0.1c0.2,0.1,0.4,0.1,0.6,0.1l6.1,0c3.4,0,6.9,0,10.3-0.3
				c0.6,0,1.1-0.1,1.7-0.1c1.5-0.1,3-0.3,4.6-0.3c1,0,2,0.1,3,0.1c1.2,0.1,2.5,0.2,3.8,0.1c0.3,0,0.5,0.2,0.5,0.5
				c0,0.3-0.2,0.5-0.5,0.5c-1.3,0-2.6,0-3.9-0.1c-1-0.1-2-0.1-3-0.1c-1.5,0-3,0.1-4.5,0.3c-0.6,0.1-1.1,0.1-1.7,0.1
				c-3.5,0.3-7,0.3-10.4,0.3L214.8,367C214.8,367,214.8,367,214.8,367z"/>
		</g>
		<g>
			<path class="st0" d="M216.4,371.2c-3,0-5.6-0.4-8-1.2c-0.3-0.1-0.4-0.4-0.3-0.6c0.1-0.3,0.4-0.4,0.6-0.3c4.1,1.4,9,1.5,15.1,0.4
				l1.1-0.2c1.1-0.2,2.2-0.4,3.4-0.5c1-0.1,1.9-0.1,2.9-0.2c0.8,0,1.7-0.1,2.5-0.2c1.4-0.1,2.9-0.4,4.3-0.7c2.2-0.4,4.4-0.8,6.7-0.8
				c0.3,0,0.5,0.2,0.5,0.5c0,0.3-0.2,0.5-0.5,0.5c-2.2,0-4.4,0.4-6.5,0.7c-1.4,0.3-2.9,0.5-4.4,0.7c-0.9,0.1-1.7,0.1-2.6,0.2
				c-0.9,0-1.9,0.1-2.8,0.2c-1.1,0.1-2.2,0.3-3.3,0.5l-1.1,0.2C221.2,370.9,218.7,371.2,216.4,371.2z"/>
		</g>
		<g>
			<path class="st0" d="M213.7,378.4c-0.2,0-0.5-0.2-0.5-0.4c0-0.3,0.1-0.5,0.4-0.6c3.5-0.6,7.2-0.9,10.7-1.1l0.5,0
				c1.1,0,2.3-0.1,3.4-0.3c1-0.2,2.1-0.5,3.1-0.8c1.2-0.4,2.5-0.7,3.7-1.2c0.3-0.1,0.5-0.2,0.7-0.4c0,0,0,0,0,0
				c-3.9,0.1-8,0.2-12,0.5l-1.1,0.1c-1.6,0.2-3.2,0.3-4.8,0.3c-2,0-4-0.3-6-0.7c-0.7-0.1-1.6-0.2-2.3-0.6c-0.2-0.1-0.4-0.4-0.2-0.7
				c0.1-0.2,0.4-0.4,0.7-0.2c0.6,0.3,1.3,0.4,2,0.5c1.9,0.3,3.9,0.6,5.9,0.6c1.5,0,3.1-0.1,4.7-0.3l1.1-0.1
				c4.2-0.4,8.6-0.5,12.7-0.6l0.4,0l0.1,0.4c0.1,0.5-0.1,1-0.5,1.4c-0.3,0.3-0.7,0.5-1,0.6c-1.3,0.5-2.6,0.9-3.8,1.3
				c-1,0.3-2.1,0.6-3.2,0.8c-1.2,0.2-2.4,0.3-3.6,0.3l-0.5,0C220.8,377.4,217.3,377.8,213.7,378.4
				C213.7,378.4,213.7,378.4,213.7,378.4z"/>
		</g>
		<g>
			<path class="st0" d="M239.8,376.4c-0.2,0-0.4,0-0.5-0.1c-0.4-0.1-0.8-0.4-1-0.8c-0.2-0.3-0.2-0.7-0.1-1c0.1-0.4,0.4-0.7,0.6-0.9
				l1.1-1c0.4-0.3,0.7-0.6,1.1-0.9c0.7-0.5,1.5-0.8,2.3-1c0.1-0.1,0.4-0.2,0.6-0.1c0.2,0.1,0.4,0.3,0.3,0.5c0,0.2-0.2,0.4-0.5,0.5
				c-0.8,0.1-1.5,0.4-2.1,0.9c-0.4,0.2-0.7,0.6-1,0.9l-1.1,1c-0.1,0.1-0.3,0.3-0.4,0.4c0,0.1,0,0.1,0,0.2c0.1,0.1,0.2,0.3,0.4,0.3
				c0.4,0.1,0.9,0,1.3-0.2c0.3-0.1,0.5,0.1,0.6,0.3c0.1,0.3-0.1,0.5-0.3,0.6C240.7,376.2,240.3,376.4,239.8,376.4z M243.5,370.7
				C243.5,370.7,243.5,370.7,243.5,370.7C243.5,370.7,243.5,370.7,243.5,370.7z"/>
		</g>
	</g>
</g>
</svg>
